HIERARCHY
ROOT Hips
{
	OFFSET 0.000000 0.000000 0.000000
	CHANNELS 6 Xposition Yposition Zposition Xrotation Yrotation Zrotation
	JOINT LeftUpLeg_virtual
	{
		OFFSET 0.000000 0.000000 0.000000
		CHANNELS 3 Xrotation Yrotation Zrotation
		JOINT LeftUpLeg
		{
			OFFSET 10.205400 -3.823500 0.155100
			CHANNELS 3 Xrotation Yrotation Zrotation
			JOINT LeftLeg
			{
				OFFSET 0.708757 -12.982077 0.567790
				CHANNELS 3 Xrotation Yrotation Zrotation
				JOINT LeftFoot
				{
					OFFSET -0.708756 -10.717838 -2.184338
					CHANNELS 3 Xrotation Yrotation Zrotation
					JOINT LeftToeBase
					{
						OFFSET 0.108149 -7.191104 7.560241
						CHANNELS 3 Xrotation Yrotation Zrotation
						JOINT LeftToe_End
						{
							OFFSET 0.070230 0.081724 4.490308
							CHANNELS 3 Xrotation Yrotation Zrotation
							End Site
							{
								OFFSET 0 0 0
							}
						}
					}
				}
			}
		}
	}
	JOINT RightUpLeg_virtual
	{
		OFFSET 0.000000 0.000000 0.000000
		CHANNELS 3 Xrotation Yrotation Zrotation
		JOINT RightUpLeg
		{
			OFFSET -10.205400 -3.823500 0.005500
			CHANNELS 3 Xrotation Yrotation Zrotation
			JOINT RightLeg
			{
				OFFSET -0.708756 -12.982134 0.610632
				CHANNELS 3 Xrotation Yrotation Zrotation
				JOINT RightFoot
				{
					OFFSET 0.708754 -10.717769 -1.945823
					CHANNELS 3 Xrotation Yrotation Zrotation
					JOINT RightToeBase
					{
						OFFSET -0.108140 -7.191069 7.372968
						CHANNELS 3 Xrotation Yrotation Zrotation
						JOINT RightToe_End
						{
							OFFSET -0.070227 0.081735 4.479403
							CHANNELS 3 Xrotation Yrotation Zrotation
							End Site
							{
								OFFSET 0 0 0
							}
						}
					}
				}
			}
		}
	}
	JOINT Spine_virtual
	{
		OFFSET 0.000000 0.000000 0.000000
		CHANNELS 3 Xrotation Yrotation Zrotation
		JOINT Spine
		{
			OFFSET 0.000000 6.876099 0.125700
			CHANNELS 3 Xrotation Yrotation Zrotation
			JOINT Spine1
			{
				OFFSET 0.000000 5.730043 0.104720
				CHANNELS 3 Xrotation Yrotation Zrotation
				JOINT Spine1_split
				{
					OFFSET 0.000000 5.730043 0.104720
					CHANNELS 3 Xrotation Yrotation Zrotation
					JOINT Spine2
					{
						OFFSET 0.000000 5.730043 0.104720
						CHANNELS 3 Xrotation Yrotation Zrotation
						JOINT Neck_virtual
						{
							OFFSET 0.000000 0.000000 0.000000
							CHANNELS 3 Xrotation Yrotation Zrotation
							JOINT Neck
							{
								OFFSET 0.000000 10.314075 0.188496
								CHANNELS 3 Xrotation Yrotation Zrotation
								JOINT Head
								{
									OFFSET 0.000000 7.643700 -2.377400
									CHANNELS 3 Xrotation Yrotation Zrotation
									JOINT HeadTop_End
									{
										OFFSET 0.000000 43.788605 -13.619600
										CHANNELS 3 Xrotation Yrotation Zrotation
										End Site
										{
											OFFSET 0 0 0
										}
									}
								}
							}
						}
						JOINT LeftShoulder_virtual
						{
							OFFSET 0.000000 0.000000 0.000000
							CHANNELS 3 Xrotation Yrotation Zrotation
							JOINT LeftShoulder
							{
								OFFSET 2.196100 4.412489 0.087492
								CHANNELS 3 Xrotation Yrotation Zrotation
								JOINT LeftShoulder_split
								{
									OFFSET 2.196100 4.412489 0.087492
									CHANNELS 3 Xrotation Yrotation Zrotation
									JOINT LeftArm
									{
										OFFSET 8.771219 -2.981674 -0.026999
										CHANNELS 3 Xrotation Yrotation Zrotation
										JOINT LeftForeArm
										{
											OFFSET 8.512804 0.000000 -0.000000
											CHANNELS 3 Xrotation Yrotation Zrotation
											JOINT LeftHand
											{
												OFFSET 18.484802 0.000000 -0.000000
												CHANNELS 3 Xrotation Yrotation Zrotation
												End Site
												{
													OFFSET 0 0 0
												}
											}
										}
									}
								}
							}
						}
						JOINT RightShoulder_virtual
						{
							OFFSET 0.000000 0.000000 0.000000
							CHANNELS 3 Xrotation Yrotation Zrotation
							JOINT RightShoulder
							{
								OFFSET -2.196100 4.412496 0.070690
								CHANNELS 3 Xrotation Yrotation Zrotation
								JOINT RightShoulder_split
								{
									OFFSET -2.196100 4.412496 0.070690
									CHANNELS 3 Xrotation Yrotation Zrotation
									JOINT RightArm
									{
										OFFSET -8.771282 -2.981682 -0.094208
										CHANNELS 3 Xrotation Yrotation Zrotation
										JOINT RightForeArm
										{
											OFFSET -8.494598 0.000000 0.000000
											CHANNELS 3 Xrotation Yrotation Zrotation
											JOINT RightHand
											{
												OFFSET -18.483803 0.000000 0.000001
												CHANNELS 3 Xrotation Yrotation Zrotation
												End Site
												{
													OFFSET 0 0 0
												}
											}
										}
									}
								}
							}
						}
					}
				}
			}
		}
	}
}
MOTION
Frames: 9
Frame Time: 0.03333333
-8.069908 28.104231 -7.651223 0.000000 0.000000 0.000000 34.972727 4.354923 -0.795444 -60.931196 -17.227737 28.121885 37.319781 -13.892593 2.568204 0.253955 23.040713 -45.883066 3.168227 -7.536954 1.143732 0.000000 0.000000 0.000000 35.985832 2.070184 -0.596581 -58.797103 -4.580805 -21.815307 47.556247 9.334812 -8.768956 -24.917582 -22.625661 30.357438 1.343073 8.452468 -2.822805 0.000000 0.000000 0.000000 38.046510 5.559228 -3.607707 14.998559 3.145377 2.226411 4.758481 1.638899 1.943610 0.079559 -0.261775 0.119232 0.000000 0.000000 0.000000 6.119112 3.447521 2.073371 -1.749635 -1.723189 -0.557947 -3.064247 -29.999376 -8.436686 0.000000 0.000000 0.000000 4.368069 2.371647 0.682643 -0.610433 -21.606441 -3.274629 3.749975 3.147692 -5.949534 19.771950 -20.794009 -49.777865 -7.758670 -67.342851 -4.193399 0.000000 0.000000 0.000000 6.721191 2.938807 2.211987 1.547752 22.251617 5.986805 -3.890381 -0.705028 4.790216 12.030247 46.336854 13.066072 -23.046863 23.624251 11.721907 0.000000 0.000000 0.000000 
-7.717212 27.629911 -7.746198 0.000000 0.000000 0.000000 37.461255 5.597191 -0.501586 -64.973158 -17.448550 26.253044 39.858761 -14.342178 2.464834 -0.392909 22.265819 -45.799700 1.955606 -7.585760 1.088741 0.000000 0.000000 0.000000 38.596941 2.693244 -0.043149 -62.407384 -3.888214 -23.379357 49.691457 10.152409 -9.505322 -25.241449 -22.908087 32.074220 0.403901 8.732107 -3.259623 0.000000 0.000000 0.000000 40.769625 6.346555 -3.106486 15.662684 3.724934 2.433885 4.907360 1.782153 2.027425 0.045058 -0.227280 0.111333 0.000000 0.000000 0.000000 6.286189 3.545013 2.120559 -2.365963 -1.657395 -0.588519 -4.564922 -29.608354 -9.886180 0.000000 0.000000 0.000000 4.524004 2.492681 0.799930 -0.587499 -22.616114 -2.847536 3.862860 3.127824 -5.982441 19.885575 -21.232411 -49.310346 -10.637303 -68.494674 -7.056247 0.000000 0.000000 0.000000 6.795153 3.037421 2.303657 2.362378 22.845277 4.812969 -4.035356 -0.566305 4.661353 8.950567 46.509593 11.238604 -24.052308 24.132103 11.888470 0.000000 0.000000 0.000000 
-7.328582 27.153036 -7.773549 0.000000 0.000000 0.000000 39.957863 7.125533 -0.041657 -68.823568 -17.417836 24.138522 42.007200 -14.711879 2.163772 -1.427317 21.635282 -45.285472 0.759405 -7.602206 0.944359 0.000000 0.000000 0.000000 41.004330 3.603058 0.684594 -65.826986 -3.173399 -25.435467 52.199960 11.064230 -10.278883 -25.943907 -23.383580 33.926338 -0.235090 9.088458 -3.758256 0.000000 0.000000 0.000000 43.425926 7.494470 -2.483959 16.214362 4.208306 2.608972 5.089365 1.964381 2.044583 0.040969 -0.211832 0.105341 0.000000 0.000000 0.000000 6.462419 3.690467 2.123874 -2.713006 -1.600992 -0.347997 -6.362540 -29.454812 -11.327471 0.000000 0.000000 0.000000 4.687401 2.649921 0.882200 -0.580690 -23.565464 -2.389357 4.194207 2.737380 -5.919606 20.795230 -22.663497 -49.046397 -13.446698 -69.354881 -9.908035 0.000000 0.000000 0.000000 6.878466 3.177840 2.347012 3.145780 23.292306 3.826822 -4.297800 -0.466255 4.657144 4.779046 46.468174 10.239142 -24.864735 24.612508 11.832577 0.000000 0.000000 0.000000 
-6.926444 26.624718 -7.738881 0.000000 0.000000 0.000000 42.283895 8.867021 0.528147 -72.499610 -17.268911 22.011760 44.105359 -15.142229 1.663867 -2.696171 21.172506 -44.548307 -0.465046 -7.576815 0.719196 0.000000 0.000000 0.000000 43.156642 4.849005 1.464574 -68.906664 -2.279208 -27.865044 55.093365 11.945999 -11.098066 -27.236308 -24.234467 35.508931 -0.224578 9.459962 -4.159671 0.000000 0.000000 0.000000 45.868470 8.928209 -1.808453 16.697623 4.579493 2.762495 5.347035 2.185102 1.996989 0.044434 -0.197114 0.098484 0.000000 0.000000 0.000000 6.685075 3.878636 2.079190 -2.843287 -1.558527 0.158444 -8.422831 -29.587010 -12.701431 0.000000 0.000000 0.000000 4.892055 2.839708 0.915580 -0.583925 -24.319068 -1.844178 4.605252 2.293027 -5.741942 22.137517 -24.655542 -48.900077 -15.754388 -69.861340 -12.263676 0.000000 0.000000 0.000000 7.013566 3.349352 2.329601 3.862517 23.654043 3.083495 -4.572489 -0.507224 4.814300 0.380849 46.132402 9.331199 -25.638681 25.493101 11.854235 0.000000 0.000000 0.000000 
-6.535478 26.010065 -7.646667 0.000000 0.000000 0.000000 44.280629 10.734155 1.140984 -76.157702 -17.171171 20.044517 46.681440 -15.696041 1.036531 -4.236034 20.909130 -43.631231 -1.521714 -7.519805 0.425743 0.000000 0.000000 0.000000 45.018631 6.449550 2.156541 -71.450650 -1.075832 -30.451032 58.425165 12.699779 -11.975186 -29.003698 -25.529408 36.713052 -0.108634 9.808742 -4.285078 0.000000 0.000000 0.000000 48.012118 10.528933 -1.171602 17.174726 4.834188 2.919788 5.732479 2.434073 1.906633 0.044409 -0.192905 0.100058 0.000000 0.000000 0.000000 6.979856 4.090952 1.985549 -2.864692 -1.531616 0.861693 -10.688877 -29.949393 -13.937810 0.000000 0.000000 0.000000 5.176485 3.042186 0.906944 -0.566489 -24.755891 -1.101965 4.937084 1.961957 -5.479667 23.449009 -26.674708 -48.773889 -17.392713 -70.028413 -13.884858 0.000000 0.000000 0.000000 7.251127 3.534210 2.261656 4.497738 24.030571 2.567511 -4.839414 -0.685710 5.148199 -3.325929 45.571753 7.683172 -26.506221 26.930326 12.273167 0.000000 0.000000 0.000000 
-6.168280 25.299576 -7.513232 0.000000 0.000000 0.000000 45.878780 12.583897 1.692157 -79.769854 -17.301863 18.400485 49.950908 -16.521435 0.389793 -5.910952 20.775728 -42.763794 -2.418428 -7.440020 0.163018 0.000000 0.000000 0.000000 46.585654 8.310516 2.644122 -73.375090 0.389880 -33.015249 62.261532 13.287447 -12.923608 -30.923115 -27.270439 37.669958 -0.544443 10.122304 -4.000687 0.000000 0.000000 0.000000 49.810203 12.145737 -0.663811 17.711925 4.978277 3.108168 6.275100 2.699940 1.797146 0.062374 -0.208062 0.110079 0.000000 0.000000 0.000000 7.383563 4.308910 1.870320 -2.912579 -1.516395 1.685448 -13.141502 -30.489903 -15.048467 0.000000 0.000000 0.000000 5.586329 3.242196 0.875810 -0.525849 -24.768452 -0.158576 5.105288 1.881146 -5.220287 24.276755 -28.404301 -48.690083 -18.307023 -69.992445 -14.676709 0.000000 0.000000 0.000000 7.636695 3.719117 2.160800 5.060288 24.552187 2.242244 -5.142853 -1.051479 5.666874 -5.909059 44.844164 4.884233 -27.470739 28.513019 13.141224 0.000000 0.000000 0.000000 
-5.836817 24.497330 -7.350993 0.000000 0.000000 0.000000 47.100568 14.341662 2.088899 -83.292852 -17.712164 17.159744 53.719441 -17.565457 -0.226468 -7.686589 20.755973 -42.121264 -3.200197 -7.329402 -0.070732 0.000000 0.000000 0.000000 47.845745 10.186311 2.926077 -74.678932 1.967268 -35.381766 66.359256 13.672012 -13.932515 -33.005738 -29.427723 38.326773 -1.464460 10.376797 -3.324775 0.000000 0.000000 0.000000 51.226699 13.683487 -0.295803 18.341602 5.019511 3.360734 6.964514 2.958968 1.694666 0.054353 -0.210165 0.126360 0.000000 0.000000 0.000000 7.903618 4.512919 1.769788 -3.084061 -1.524824 2.551803 -15.754967 -31.143822 -16.042299 0.000000 0.000000 0.000000 6.139614 3.433053 0.842604 -0.486079 -24.308191 0.873047 5.172675 1.870075 -4.931300 24.497655 -29.856987 -48.641892 -18.541938 -69.967105 -14.761395 0.000000 0.000000 0.000000 8.176016 3.897598 2.055927 5.576209 25.288620 1.995041 -5.421086 -1.402054 6.065670 -7.716094 44.045728 1.185321 -28.529574 29.624665 14.339209 0.000000 0.000000 0.000000 
-5.531847 23.655521 -7.162826 0.000000 0.000000 0.000000 48.051620 15.966233 2.301170 -86.618007 -18.320179 16.284727 57.695236 -18.750189 -0.692530 -9.383649 20.814086 -41.863377 -4.062644 -7.192538 -0.226324 0.000000 0.000000 0.000000 48.807825 11.871323 3.040334 -75.413293 3.452764 -37.530650 70.537119 13.861704 -14.912390 -35.498231 -31.866972 38.437914 -2.475673 10.570850 -2.350296 0.000000 0.000000 0.000000 52.380164 15.125734 -0.080070 19.044907 4.978462 3.679032 7.778820 3.200387 1.614323 0.031396 -0.209774 0.132695 0.000000 0.000000 0.000000 8.512593 4.697225 1.712666 -3.433942 -1.578006 3.371943 -18.432094 -31.855114 -16.933185 0.000000 0.000000 0.000000 6.835417 3.606480 0.820574 -0.454414 -23.491937 1.927042 5.192682 1.766620 -4.684822 24.188546 -31.216464 -48.716304 -18.452361 -70.160939 -14.559983 0.000000 0.000000 0.000000 8.857476 4.074883 1.979080 6.080099 26.243199 1.766705 -5.836594 -1.672017 6.338127 -9.466831 43.246921 -2.753233 -29.569887 29.821829 15.628702 0.000000 0.000000 0.000000 
-5.246909 22.835140 -6.942361 0.000000 0.000000 0.000000 48.876598 17.414445 2.291120 -89.556860 -18.986013 15.708795 61.488600 -19.990958 -0.927842 -10.795720 20.959438 -42.098421 -5.022032 -7.047037 -0.238123 0.000000 0.000000 0.000000 49.564473 13.200965 3.068350 -75.713870 4.713725 -39.474911 74.614523 13.916691 -15.752612 -38.280687 -34.371564 38.103167 -3.389041 10.746112 -1.282680 0.000000 0.000000 0.000000 53.355508 16.438349 0.005363 19.756462 4.867756 4.040153 8.661526 3.411771 1.564200 0.018602 -0.215010 0.109285 0.000000 0.000000 0.000000 9.171739 4.855293 1.715170 -3.930151 -1.683775 4.096020 -21.003897 -32.702748 -17.723629 0.000000 0.000000 0.000000 7.626806 3.759575 0.813130 -0.439618 -22.472077 2.889497 5.367475 1.384175 -4.452810 23.362172 -32.655449 -49.029960 -18.133720 -70.566455 -14.285511 0.000000 0.000000 0.000000 9.636533 4.245002 1.939141 6.588268 27.268400 1.465789 -6.327892 -1.706312 6.386596 -11.925096 42.498605 -6.036823 -30.630113 29.256852 16.843682 0.000000 0.000000 0.000000 
